<svg xmlns="http://www.w3.org/2000/svg" viewBox="0 0 512 512"><title>Artboard 142</title><g id="Recycle_Bin" data-name="Recycle Bin"><path d="M64,170.66667H448L426.66667,448A42.66667,42.66667,0,0,1,384,490.66667H128A42.66667,42.66667,0,0,1,85.33333,448Z" style="fill:#30bf00"/><rect x="85.33333" y="170.66667" width="234.66667" height="64" rx="31.99997" ry="31.99997" style="fill:#009c13"/><path d="M133.52523,218.42546c-.54883,0-1.10287.02115-1.65918.0638A21.33394,21.33394,0,0,0,112.229,241.35775l.80551,10.46972.00065.00847.00325.04232.00065.00976.00375.04753.00569.07519.00147.01791.00635.08235.00244.03353c.96972,12.60287,2.44612,31.79264,2.44612,31.79264a21.33462,21.33462,0,0,0,21.24756,19.69825q.82324,0,1.65934-.06413a21.3331,21.3331,0,0,0,19.63379-22.9069l-3.27262-42.541a21.33448,21.33448,0,0,0-21.24772-19.69791Zm9.81852,127.62272q-.82325.00048-1.65934.06412a21.33271,21.33271,0,0,0-19.63688,22.86947l3.28011,42.63672a21.33464,21.33464,0,0,0,21.24316,19.63965c.54883,0,1.10287-.02116,1.65918-.0638a21.33313,21.33313,0,0,0,19.63412-22.90691l-3.27279-42.541a21.33448,21.33448,0,0,0-21.24756-19.69824Z" style="fill:#8ae963"/><path d="M426.66667,448,448,170.66667H320L298.66667,448A42.66712,42.66712,0,0,1,256,490.66667H384A42.66712,42.66712,0,0,0,426.66667,448Z" style="fill:#009c13"/><path d="M458.66667,128H448v-.00157A106.6651,106.6651,0,0,0,341.3349,21.33333H170.6651A106.6651,106.6651,0,0,0,64,127.99843V128H53.33333a32,32,0,0,0,0,64H458.66667a32,32,0,1,0,0-64Z" style="fill:#47cd1c"/><rect x="85.33333" y="85.33333" width="149.33333" height="42.66667" rx="21.33331" ry="21.33331" style="fill:#30bf00"/><path d="M458.66667,128H448v-.0013A106.66536,106.66536,0,0,0,341.33464,21.33333h-.00272A106.66526,106.66526,0,0,0,234.66667,127.99859V128h10.66666a32,32,0,0,1,0,64H458.66667a32,32,0,1,0,0-64Z" style="fill:#30bf00"/><rect x="106.66667" y="42.66667" width="128" height="64" rx="31.99997" ry="31.99997" style="fill:#005e05"/><path d="M202.66667,42.66667H138.56429l-.01969.00032h-.0542l-.02816.00033-.02555.00032h-.02556l-.0236.00033h-.02783l-.02393.00032-.02669.00033-.02376.00033-.02783.00032-.02295.00033-.02832.00032-.02149.00033-.02962.00032-.0223.00033-.02848.00065-.02311.00033-.02751.00065-.02376.00032-.02832.00065-.02035.00033-.0306.00065-.02148.00065-.02946.00065-.02116.00033-.02946.00065-.02311.00065-.02734.00065-.02328.00065-.02751.001-.02376.00065-.02783.00065-.02181.00065-.02848.001-.02458.00065-.02539.001-.0249.001-.02588.00065-.02507.001-.027.001-.022.00065-.02864.0013-.0236.00065-.02751.0013-.02214.00065-.02832.0013-.02343.001-.02686.001-.02327.001-.0267.00131-.02523.001-.026.00131-.02311.001-.02881.0013-.0223.00131-.03011.0013-.019.001-.03011.00131-.02246.0013-.02621.0013-.02392.0013-.02881.00163-.02116.001-.03271.002-.01709.00065-.03174.002-.02.001-.03239.002-.01709.001-.03206.002-.01954.00131-.03173.002-.01807.001-.02865.00162-.02311.00163-.02327.00163-.02637.00163-.03792.00227-.01237.001-.10026.00684-.02588.00162-.02458.002-.02523.00163-.02506.002-.021.00163-.03011.002-.02018.00163-.029.00228-.02458.00195-.0262.002-.02214.00163-.028.00228-.0223.00163-.02816.00227-.02588.00228-.02246.00163-.02783.00228-.0236.00228-.02442.002-.02571.00228-.02263.002-.0288.00228-.02133.002-.027.00228-.02442.00228-.02669.00228-.02311.00228-.02588.00228-.02409.00228-.02686.00228-.0236.00227-.02539.00261-.02441.00228-.02718.0026-.021.002-.02913.00293-.02084.002-.02929.00293-.02165.00227-.0262.00261-.02539.0026-.02409.00228-.026.00261-.0236.0026-.02507.0026-.02653.00293-.02295.00228-.02588.00293-.02441.00261-.02735.00293-.0205.00228-.03093.00325-.01855.00228-.03125.00325-.019.00228-.02832.00326-.02262.0026-.028.00326-.02067.00228-.03012.00358-.01953.00228-.03157.00358-.01791.00227-.02994.00359-.02035.00227-.03092.00391-.01807.00228-.03271.00391-.01677.002-.03174.0039-.01871.00261-.02653.00325-.02344.00293-.02914.00391-.01969.00228-.03027.0039-.0197.00261-.02864.00391-.02084.0026-.03336.00456-.01563.00195c-.06673.00879-.13118.0179-.19775.027l-.01872.0026-.03092.00456-.01433.00195-.03548.00489-.014.00227-.03515.00489-.01644.00228-.03255.00488-.01742.0026-.03271.00489-.01319.002-.03613.00521-.01562.00228-.03288.0052-.02084.00293-.02636.00424-.02637.0039-.02327.00358-.02263.00358-.02734.00423-.02181.00326-.027.00423-.022.00358-.02686.00423-.023.00358-.02669.00424-.02035.00325-.029.00488-.021.00326-.02767.00456-.02132.00358-.02686.00456-.02344.0039-.02588.00423-.02148.00358-.02848.00456-.02.00358-.02946.00488-.019.00326-.029.00488-.02083.00358-.02962.00521-.01709.00293-.03141.00554-.019.00325-.02978.00553-.01856.00326-.02816.00488-.02278.00423-.02588.00456-.02132.00391-.0293.00521-.01937.00358-.03011.00553-.0179.00326-.03011.00553-.01937.00358-.03239.00586-.01449.0026-.03255.00619-.01806.00358-.02963.00553-.01823.00326-.02962.00586-.01986.0039-.03027.00554-.01725.00358-.033.00618-.01579.00326-.03678.00716-.01091.002-.03564.00717-.01367.0026-.0931.01855-.00326.00066-.04573.00944-.00293.00065-.02539.0052-.05144.01042-.06884.01432-.01286.00261-.03565.00749-.01432.00292-.03337.00717-.01676.00325-.03272.00716-.01171.00228-.03581.00781-.01611.00358-.03223.00684-.0179.00391-.0293.00618-.02051.00456-.02816.00618-.0223.00489-.02408.00521-.02507.00553-.02392.00553-.022.00489-.02636.00586L131.62,43.445l-.02994.00683-.01791.00391-.02848.00651-.02083.00488-.02767.00619-.02181.00521-.02442.00553-.0236.00553-.02539.00586-.02213.00489-.02539.00618-.02165.00488-.02718.00651-.02018.00489-.02751.00651-.01969.00455-.02946.00684-.01791.00456-.02864.00683-.01986.00456-.02865.00716-.01888.00456-.02734.00651-.02132.00521-.02718.00683-.01986.00489-.02734.00651-.02067.00521-.02718.00683-.02.00488-.02816.00717-.01888.00455-.0306.00782-.01693.00423-.02848.00716-.02.00521-.02686.00683-.021.00521-.0249.00651-.02263.00586-.02685.00684-.01986.00521-.027.00683-.021.00554-.02571.00683-.02165.00554-.02767.00716-.01872.0052-.03369.00879-.01318.00358-.03581.00944-.01139.00293-.037.0101-.01058.0026-.03629.00977-.01107.00325c-.09554.02572-.18929.05176-.28434.07813l-.00521.00162-.04216.01172-.00537.00163-.04118.01172-.01139.00325-.03629.01042-.00863.00228-.03792.01107-.01221.00325-.03516.01042-.01041.00293-.03646.01041-.01188.00359-.03548.01041-.01107.00326-.035.01009-.01448.00423-.033.00977-.01237.0039-.03353.00977-.01611.00488-.03174.00944-.01237.00358-.03451.01042-.01253.0039-.03548.01075-.00928.0026-.03662.01107-.0127.0039-.034.01042-.01237.00391-.03321.01009-.016.00488-.02978.00912-.01693.0052-.02864.00912-.0197.00618-.027.00814-.01839.00586-.02848.00912-.01823.00553-.0293.00944-.01562.00488-.03011.00944-.01823.00586-.02816.00879-.01725.00554-.02914.00944-.0179.00585-.02995.00944-.01481.00489-.0306.00976-.01725.00586-.03044.00977-.01448.00456-.0319.01041-.015.00521-.034.01107-.01075.00358-.03548.01172-.01155.0039-.037.01205-.0083.00293-.03744.01237-.00944.00325-.03808.0127-.00765.0026-.03288.01107-.01514.00521-.03955.01334-.00455.00163-.0459.01563h-.00017c-.15462.05306-.30794.10677-.46158.16178l-.00472.00163-.04167.015-.00277.001-.042.0153-.008.00293-.03824.014-.00765.0026-.03663.01335-.01285.00488-.03369.01237-.00944.00358-.03663.01335-.008.00293-.03809.01432-.00732.0026-.03727.014-.01026.00358-.03564.01335-.00944.00358-.03613.01367-.00912.00326-.03646.014-.00976.00358-.03435.013-.012.00456-.035.01335-.009.00358-.03629.01367-.00895.00358-.03679.014-.00879.00358-.03531.01367-.01075.00391-.0358.014-.00879.00359-.03532.01367-.01058.00423-.03532.01367-.00977.00391-.03352.013-.01286.00521-.03418.01334-.00944.00391-.03679.01465-.00781.00293-.03922.01562-.00521.00228-.03727.015-.00928.00359-.03744.015-.00667.00293-.03841.0153-.00667.00293-.03988.01595-.00488.002-.03728.0153-.00862.00358-.04248.01725-.00082.00033q-.33837.13915-.67236.28516l-.001.00032-.13248.05827-.00147.00065-.041.01823-.00847.00391-.03646.01627-.00569.00228-.0389.01758-.0057.0026-.03743.01661-.0083.0039-.03565.016-.00879.00423-.03662.01661-.00488.002-.04.01823-.00358.00163-.04118.01888-.002.001-.04021.01823-.00667.00326-.03825.01757-.00423.002-.03874.0179-.00651.00293-.03873.01823-.00375.00163-.03938.01823-.00538.0026-.04117.01921-.00049.00032-.04232.01986-.0026.0013-.04183.01953-.00163.001-.04053.0192-.00439.002-.0402.0192-.00293.00131-.03939.01888-.00537.0026-.0376.0179-.00619.00293-.03645.01758-.00749.00358-.085.041-.00033.00032q-.56737.2754-1.12109.57194l-.00228.00131-.04085.02181-.001.00065-.04036.02148-.00391.00228-.03825.02051-.00488.0026-.03614.01986-.00732.0039-.03711.02019-.00325.002-.03858.02083-.00423.00228-.03923.02149-.00227.0013-.0389.02148-.00424.00228-.0402.02214-.00065.00032-.04166.02311-.00049.00033a31.9972,31.9972,0,0,0-16.47185,26.84277,10.66665,10.66665,0,0,0,10.26644,11.00423c.13477.00489.26807.00749.40186.00749A10.66747,10.66747,0,0,0,128.00765,74.251,10.62072,10.62072,0,0,1,138.66667,64h64a10.66667,10.66667,0,0,0,0-21.33333Z" style="fill:#0a360a"/><rect x="256" y="85.33333" width="170.66667" height="42.66667" rx="21.33331" ry="21.33331" style="fill:#0d9f00"/><rect x="42.66667" y="128" width="213.33333" height="21.33333" rx="10.66666" ry="10.66666" style="fill:#8ae963"/><rect x="277.33333" y="128" width="192" height="21.33333" rx="10.66666" ry="10.66666" style="fill:#46d247"/><rect x="192" y="21.33333" width="85.33333" height="21.33333" rx="10.66666" ry="10.66666" style="fill:#8ae963"/><circle cx="160" cy="32" r="10.66667" style="fill:#8ae963"/><rect x="298.66667" y="448" width="106.66667" height="42.66667" rx="21.33331" ry="21.33331" style="fill:#0e8900"/><rect x="106.66667" y="448" width="170.66665" height="42.66667" rx="21.33331" ry="21.33331" style="fill:#009c13"/><path d="M422.31739,213.33333h0a21.22744,21.22744,0,0,0-21.12209,19.11523L384.10742,403.327a21.22744,21.22744,0,0,0,21.12209,23.33965h0a21.22744,21.22744,0,0,0,21.12209-19.11523L443.43949,236.673A21.22745,21.22745,0,0,0,422.31739,213.33333Z" style="fill:#0e8900"/></g></svg>