<svg xmlns="http://www.w3.org/2000/svg" xmlns:xlink="http://www.w3.org/1999/xlink" width="567" zoomAndPan="magnify" viewBox="0 0 425.25 283.500005" height="378" preserveAspectRatio="xMidYMid meet" version="1.0"><defs><g/><clipPath id="a03c4b7821"><path d="M 0.101562 0 L 314.1875 0 L 314.1875 283 L 0.101562 283 Z M 0.101562 0 " clip-rule="nonzero"/></clipPath><clipPath id="44cb651d19"><rect x="0" width="315" y="0" height="283"/></clipPath><clipPath id="a4d6d59e8b"><rect x="0" width="315" y="0" height="283"/></clipPath></defs><g transform="matrix(1, 0, 0, 1, 55, 0.000000000000005262)"><g clip-path="url(#a4d6d59e8b)"><g clip-path="url(#a03c4b7821)"><g transform="matrix(1, 0, 0, 1, 0.000000000000007105, 0.000000000000005262)"><g clip-path="url(#44cb651d19)"><g fill="#2b4c3f" fill-opacity="1"><g transform="translate(96.349293, 199.735439)"><g><path d="M 8.9375 -82.75 C 4.832031 -83.226562 0.859375 -82.894531 -2.984375 -81.75 C -6.835938 -80.613281 -9.988281 -78.820312 -12.4375 -76.375 C -15.25 -73.5625 -17.109375 -70.289062 -18.015625 -66.5625 C -18.929688 -62.84375 -18.8125 -59.082031 -17.65625 -55.28125 C -16.507812 -51.488281 -14.421875 -48.078125 -11.390625 -45.046875 C -8.359375 -42.015625 -4.945312 -39.925781 -1.15625 -38.78125 C 2.632812 -37.632812 6.390625 -37.515625 10.109375 -38.421875 C 13.835938 -39.335938 17.109375 -41.203125 19.921875 -44.015625 C 22.210938 -46.304688 24.019531 -49.28125 25.34375 -52.9375 C 26.675781 -56.601562 27.316406 -60.429688 27.265625 -64.421875 L 44.96875 -63.78125 C 45.125 -57.5625 44.054688 -51.421875 41.765625 -45.359375 C 39.484375 -39.304688 36.296875 -34.234375 32.203125 -30.140625 C 26.671875 -24.609375 20.394531 -20.882812 13.375 -18.96875 C 6.363281 -17.0625 -0.617188 -17.035156 -7.578125 -18.890625 C -14.546875 -20.753906 -20.765625 -24.421875 -26.234375 -29.890625 C -31.648438 -35.304688 -35.234375 -41.492188 -36.984375 -48.453125 C -38.742188 -55.421875 -38.597656 -62.425781 -36.546875 -69.46875 C -34.503906 -76.519531 -30.664062 -82.863281 -25.03125 -88.5 C -20.882812 -92.644531 -15.925781 -95.875 -10.15625 -98.1875 C -4.382812 -100.5 1.390625 -101.578125 7.171875 -101.421875 Z M 8.9375 -82.75 "/></g></g></g><g fill="#2b4c3f" fill-opacity="1"><g transform="translate(213.552141, 200.176836)"><g><path d="M -82.75 -8.9375 C -83.226562 -4.832031 -82.894531 -0.859375 -81.75 2.984375 C -80.613281 6.835938 -78.820312 9.988281 -76.375 12.4375 C -73.5625 15.25 -70.289062 17.109375 -66.5625 18.015625 C -62.84375 18.929688 -59.082031 18.8125 -55.28125 17.65625 C -51.488281 16.507812 -48.078125 14.421875 -45.046875 11.390625 C -42.015625 8.359375 -39.925781 4.945312 -38.78125 1.15625 C -37.632812 -2.632812 -37.515625 -6.390625 -38.421875 -10.109375 C -39.335938 -13.835938 -41.203125 -17.109375 -44.015625 -19.921875 C -46.304688 -22.210938 -49.28125 -24.019531 -52.9375 -25.34375 C -56.601562 -26.675781 -60.429688 -27.316406 -64.421875 -27.265625 L -63.78125 -44.96875 C -57.5625 -45.125 -51.421875 -44.054688 -45.359375 -41.765625 C -39.304688 -39.484375 -34.234375 -36.296875 -30.140625 -32.203125 C -24.609375 -26.671875 -20.882812 -20.394531 -18.96875 -13.375 C -17.0625 -6.363281 -17.035156 0.617188 -18.890625 7.578125 C -20.753906 14.546875 -24.421875 20.765625 -29.890625 26.234375 C -35.304688 31.648438 -41.492188 35.234375 -48.453125 36.984375 C -55.421875 38.742188 -62.425781 38.597656 -69.46875 36.546875 C -76.519531 34.503906 -82.863281 30.664062 -88.5 25.03125 C -92.644531 20.882812 -95.875 15.925781 -98.1875 10.15625 C -100.5 4.382812 -101.578125 -1.390625 -101.421875 -7.171875 Z M -82.75 -8.9375 "/></g></g></g><g fill="#2b4c3f" fill-opacity="1"><g transform="translate(218.138396, 83.262567)"><g><path d="M -8.9375 82.75 C -4.832031 83.226562 -0.859375 82.894531 2.984375 81.75 C 6.835938 80.613281 9.988281 78.820312 12.4375 76.375 C 15.25 73.5625 17.109375 70.289062 18.015625 66.5625 C 18.929688 62.84375 18.8125 59.082031 17.65625 55.28125 C 16.507812 51.488281 14.421875 48.078125 11.390625 45.046875 C 8.359375 42.015625 4.945312 39.925781 1.15625 38.78125 C -2.632812 37.632812 -6.390625 37.515625 -10.109375 38.421875 C -13.835938 39.335938 -17.109375 41.203125 -19.921875 44.015625 C -22.210938 46.304688 -24.019531 49.28125 -25.34375 52.9375 C -26.675781 56.601562 -27.316406 60.429688 -27.265625 64.421875 L -44.96875 63.78125 C -45.125 57.5625 -44.054688 51.421875 -41.765625 45.359375 C -39.484375 39.304688 -36.296875 34.234375 -32.203125 30.140625 C -26.671875 24.609375 -20.394531 20.882812 -13.375 18.96875 C -6.363281 17.0625 0.617188 17.035156 7.578125 18.890625 C 14.546875 20.753906 20.765625 24.421875 26.234375 29.890625 C 31.648438 35.304688 35.234375 41.492188 36.984375 48.453125 C 38.742188 55.421875 38.597656 62.425781 36.546875 69.46875 C 34.503906 76.519531 30.664062 82.863281 25.03125 88.5 C 20.882812 92.644531 15.925781 95.875 10.15625 98.1875 C 4.382812 100.5 -1.390625 101.578125 -7.171875 101.421875 Z M -8.9375 82.75 "/></g></g></g><g fill="#2b4c3f" fill-opacity="1"><g transform="translate(100.935534, 82.821146)"><g><path d="M 82.75 8.9375 C 83.226562 4.832031 82.894531 0.859375 81.75 -2.984375 C 80.613281 -6.835938 78.820312 -9.988281 76.375 -12.4375 C 73.5625 -15.25 70.289062 -17.109375 66.5625 -18.015625 C 62.84375 -18.929688 59.082031 -18.8125 55.28125 -17.65625 C 51.488281 -16.507812 48.078125 -14.421875 45.046875 -11.390625 C 42.015625 -8.359375 39.925781 -4.945312 38.78125 -1.15625 C 37.632812 2.632812 37.515625 6.390625 38.421875 10.109375 C 39.335938 13.835938 41.203125 17.109375 44.015625 19.921875 C 46.304688 22.210938 49.28125 24.019531 52.9375 25.34375 C 56.601562 26.675781 60.429688 27.316406 64.421875 27.265625 L 63.78125 44.96875 C 57.5625 45.125 51.421875 44.054688 45.359375 41.765625 C 39.304688 39.484375 34.234375 36.296875 30.140625 32.203125 C 24.609375 26.671875 20.882812 20.394531 18.96875 13.375 C 17.0625 6.363281 17.035156 -0.617188 18.890625 -7.578125 C 20.753906 -14.546875 24.421875 -20.765625 29.890625 -26.234375 C 35.304688 -31.648438 41.492188 -35.234375 48.453125 -36.984375 C 55.421875 -38.742188 62.425781 -38.597656 69.46875 -36.546875 C 76.519531 -34.503906 82.863281 -30.664062 88.5 -25.03125 C 92.644531 -20.882812 95.875 -15.925781 98.1875 -10.15625 C 100.5 -4.382812 101.578125 1.390625 101.421875 7.171875 Z M 82.75 8.9375 "/></g></g></g></g></g></g></g></g></svg>